<svg id="favicon" data-name="favicon" xmlns="http://www.w3.org/2000/svg" viewBox="0 0 512 512">
  <style>
    path {
      fill: #4f5b62;
    }
    @media (prefers-color-scheme: dark) {
      path {
        fill: white;
      }
    }
  </style>
  <path class="path" d="M111.08,153c-1.44-3.64-2.2-6-3.29-8.2-1.45-2.91-1.13-4.83,2.24-5.9s6.82-2.42,6.43-7.26c0-.57,2.22-1.85,3.48-1.94,17-1.25,34.13-1.82,51.08-3.73,6.89-.78,13.44-4.45,20.2-6.65a38,38,0,0,1,8.05-1.84c9.88-.94,17.78-7.81,21-17.33,1.05-3.12,4.07-5.69,6.53-8.18s5.12-4.24-.16-6.26c-.66-.25-1.62-1-1.58-1.54.71-10.22-7.7-14.74-14.22-17.53-7.93-3.39-7.42-8.12-7.81-14.42-.13-2.09-3.93-4.35-6.46-5.8-2.8-1.59-6.07-2.34-9.24-3.48.57-1.43.62-2.22,1-2.44,7-4.12,8-10.64,7.78-18-.2-8.94,4.5-15,12.64-18.34C220.2-.53,231.86-2.32,243,4.51c3.24,2,5.49,5.78,7.8,9,1.09,1.54.94,3.9,1.86,5.61,4.37,8.14,7,16.15,2.59,25.41-1.72,3.62.89,6.36,5,8,2.94,1.17,5.47,3.8,7.7,6.23a10.19,10.19,0,0,0,11.35,3.09c8.85-2.72,16.65-1.76,24.9,3.34C311,69.38,319.5,70.64,327,73.86c16.72,7.23,33.73,14,49.67,22.68,8.84,4.83,16.63,12.5,17.82,24.1.55,5.33,5.1,6.93,8.8,9.94,8.39,6.8,15.19,15.52,23.08,23,5,4.73,4,10.25,2.64,15.39-1.15,4.34-3.15,9.09-9.63,8.81-2-.09-4.12,2.12-6.19,3.27,0,.74-.07,1.47-.11,2.21-1.61-1.42-3.62-2.57-4.75-4.3-2.92-4.5-5.2-9.43-8.27-13.81-1.58-2.26-4.31-3.72-7.29-6.17-.84,5.82-1.28,9.81-2.1,13.72-.17.77-1.84,1.22-3.31,2.11-3.12-6.81-2.48-13.32-1.34-20a42,42,0,0,0,.59-12.87c-.62-4.24-3.54-6.83-8.18-8.35-6.31-2.07-11.92-6.24-18.21-8.41-11.34-3.91-22.95-7-35.66-10.78,0,4.88-.5,8.87.11,12.67,1.25,7.8,3.07,15.5,4.7,23.23,1.55,7.36,2.87,14.78,4.82,22,2.56,9.49,5.57,18.87,8.5,28.26,3.88,12.44,8.12,24.87,8.05,38.06a44.63,44.63,0,0,1-9.34,26.5c-5,6.64-9.15,12.77-10.41,21.42-1.45,9.91-5.25,19.46-7.89,29.21a22.41,22.41,0,0,0-.9,7.07c.63,10.51,1.5,21,2.24,31.51.13,1.78.6,3.8,0,5.34-4.07,10.34,2.09,19.35,3.55,28.94,2.62,17.17,8.34,33.83,8.6,51.42,0,2.53,1,5,1.52,7.57,1.29,6.27,3.68,12.21,1.43,19.07-1.27,3.86-.38,8.72.5,12.93,1.57,7.54,4,14.9,5.81,22.4,1,4.32.47,7.9-5.29,8.28-4.91.32-9.8,1.55-14.7,1.6-19.52.19-39,.09-58.55.05-2.09,0-4.17-.29-7.86-.56,2.24-3,3.2-5.41,5-6.34,5.91-3.1,12.1-5.67,18.2-8.42,6.95-3.12,14.9-5.11,16.63-14.23a8.49,8.49,0,0,0-.53-4.47c-6.73-16.84-11.75-34-11.88-52.39-.07-8.68-1.84-17.33-2-26-.13-5.65,1.61-11.34,1.62-17a12.31,12.31,0,0,0-3.41-7.83c-5.79-5.76-7.95-12.63-7.94-20.5,0-13.17.07-26.33-.07-39.5,0-2-1.05-3.95-1.61-5.93-2,.56-4.2.7-5.86,1.74Q251.13,320.77,235,331.42a15,15,0,0,0-4.67,4.56c-6,10.15-11.93,20.36-17.63,30.7-10,18-19.61,36.2-29.61,54.2-5.74,10.35-12.11,20.37-17.77,30.77-2,3.65-4.27,5.12-8.34,5.35-8.32.46-16-1.6-23.9-3.95-12.7-3.78-25.74-6.47-38.58-9.8a25.66,25.66,0,0,1-8.73-3.66c-1.89-1.4-4.3-5.58-3.79-6.16,2-2.29,5.38-5.42,7.72-5,9.34,1.54,17.83-.54,26.06-4.31a17.62,17.62,0,0,0,6.6-5.45c5.33-7.34,9.82-15.32,15.46-22.39a242.94,242.94,0,0,1,22.61-25.32c8.79-8.28,15.47-17.44,18.84-29.06.59-2,2.46-3.59,3.43-5.52,1.39-2.77,2.51-5.68,3.72-8.54,1.13-2.66,2.11-5.39,3.37-8,.77-1.59,2.7-2.9,2.83-4.45.64-7.58,6.45-11.5,10.8-16.59,10.32-12,20.32-24.36,30.46-36.56,1-1.23,1.82-2.94,3.14-3.56,7.7-3.62,10.19-11.42,14.13-17.88,1.63-2.68,1.88-7,1.12-10.19-2.16-9-5.15-17.81-7.83-26.7-2.22-7.34-5-14.56-6.54-22-1.93-9.29-3.06-18.76-4.18-28.2-1-8.44-2.06-9.47-10.74-10.05a67.17,67.17,0,0,0-32.31,5.86c-5.18,2.28-11.47,2.57-17-1.7-2-1.59-5.32-2-8.09-2.19-12.78-.81-24.39,3.78-36,8.25-.55.21-1.44.74-1.61.57C122.58,148.82,116,154.45,111.08,153Z"/>
</svg>
